<?xml version="1.0" encoding="utf-8"?>
<!-- Generator: Adobe Illustrator 16.0.0, SVG Export Plug-In . SVG Version: 6.00 Build 0)  -->
<!DOCTYPE svg PUBLIC "-//W3C//DTD SVG 1.1//EN" "http://www.w3.org/Graphics/SVG/1.1/DTD/svg11.dtd">
<svg version="1.1" id="Layer_1" xmlns="http://www.w3.org/2000/svg" xmlns:xlink="http://www.w3.org/1999/xlink" x="0px" y="0px"
	 width="100px" height="100px" viewBox="0 0 100 100" enable-background="new 0 0 100 100" xml:space="preserve">
<g>
	<g>
		<g>
			<path fill="#DBA94B" d="M70.633,47.948c-4.232-0.983-14.621,0.546-19.046,0.437c-4.426-0.109-8.658-5.569-14.333-7.208
				s-14.718,1.857-15.584,7.863c-0.865,6.006,5.195,9.829,12.506,13.213c2.715,1.258,5.02,2.107,7.399,2.59
				c-3.426-1.252-9.082-3.707-10.702-6.739c-2.373-4.441-2.949-7.79-1.282-11.357s7.759-4.44,11.094-2.984
				c3.335,1.456,6.798,5.824,11.03,5.97s13.596-2.621,15.198,0.728c1.604,3.349-4.039,11.211-12.184,11.284
				c-8.146,0.073-11.672-0.146-15.521-3.057c-3.847-2.912-1.987-6.189,0.193-7.209c2.18-1.019,5.259-1.091,7.823,0.074
				c2.565,1.164,1.779,3.64-0.272,4.494c-2.052,0.855-5.114-0.054-4.857-1.219c0.256-1.165,2.181-1.674,3.527-0.873
				c0,0-0.209-1.693-3.014-1.748c-2.807-0.055-4.249,3.914-0.931,5.533c3.318,1.62,7.968,0.656,9.396-1.783
				c1.426-2.439-0.898-5.825-5.003-6.971c-4.104-1.146-8.336-2.239-10.773,0.528c-2.437,2.767-2.629,8.153,4.617,11.721
				c6.737,3.316,14.027,3.485,20.996,2.264c7.686-1.818,10.766-4.52,12.993-7.141C76.501,53.299,74.865,48.931,70.633,47.948z"/>
			<path fill="#DBA94B" d="M74.557,58.041l0.694,8.472c0,0-12.217,11.248-26.069,9.72c-13.852-1.529-13.37-7.426-10.389-8.301
				c2.876-0.842,16.395,0.143,21.669-3.02c-4.092,1.112-8.907,1.767-14.358,1.383c-18.565-1.311-24.24-10.703-24.24-10.703
				l0.192,11.467c0,0,6.733,9.174,24.914,10.593c18.181,1.421,28.954-10.374,28.954-10.374V56.902
				C75.924,56.902,75.452,57.349,74.557,58.041z"/>
			<path fill="#DBA94B" d="M21.479,62.145c0,0-7.889-0.109-11.255,2.402c-3.367,2.512,0.77,7.754,5.002,8.408
				c4.232,0.656,4.232,1.093,3.463,1.857c-0.77,0.764-4.04,6.588,2.116,8.662c6.156,2.076,6.926-2.547,8.945-2.547
				c2.021,0,1.54,7.207,8.369,4.914c5.771-2.184,2.405-8.409,2.405-8.409s0.385,5.024-3.56,5.242
				c-3.943,0.218-3.366-2.948-6.637-3.386s-2.854,2.766-7.503,1.383c-4.649-1.382-1.924-4.986-0.866-6.297
				c1.059-1.311-1.539-1.747-3.559-2.184C16.38,71.754,8.107,64.984,21.479,62.145z"/>
			<path fill="#DBA94B" d="M77.078,63.346c0,0,7.418-1.107,10.106,0.188c2.688,1.296,3.553,3.962-3.277,4.944
				c-4.248,0.611-2.789,2.73,0.386,5.896c3.174,3.168-3.078,8.191-18.902,1.201c-0.201-0.088,3.613,1.083,9.485,0.435
				c5.871-0.649,7.004-2.972,5.376-5.51c-1.627-2.538,2.689-3.476,4.811-4.315C88.237,64.656,81.888,63.564,77.078,63.346z"/>
			<path fill="#DBA94B" d="M42.609,78.78c0,0-1.688,9.534,4.296,10.483c6.605,0.873,4.105-6.918,8.851-2.258
				s8.978,2.186,10.324,0.802s0.053-5.11,1.667-5.241c3.592-0.292,7.312-3.35-3.912-6.553c0,0,6.332,2.736,5.195,3.932
				c-1.731,1.82-4.232,0.51-4.361,1.237c-0.225,1.277,1.09,5.897-3.655,5.679s-6.734-5.314-9.299-3.059
				C49.149,86.061,42.545,87.225,42.609,78.78z"/>
		</g>
		<path fill="#DBA94B" d="M77.919,55.887l0.003,0.19c9.127,3.724,14.895,9.204,14.895,15.315c0,11.221-19.447,20.316-43.438,20.316
			c-23.989,0-43.437-9.096-43.437-20.316c0-5.952,5.471-11.305,14.188-15.021l-0.007-0.313C9.821,60.104,3.244,66.25,3.244,73.133
			c0,12.184,20.596,22.06,46,22.06c25.405,0,46-9.876,46-22.06C95.244,66.15,88.478,59.928,77.919,55.887z"/>
	</g>
	<path fill="#DBA94B" d="M53.312,46.495c0,0,5.749-6.329,3.952-12.129s-4.208-7.66-6.098-10.355c-1.891-2.695-2.63-5.347-2.004-7.28
		c0,0-1.895,0.922-1.156,5.411c0.739,4.489,6.492,7.46,7.302,13.092C56.329,42.333,53.312,46.495,53.312,46.495z"/>
	<path fill="#DBA94B" d="M57.852,42.882c0,0,4.819-3.745,3.716-11.311c-1.103-7.566-5.38-10.801-7.016-14.029
		c-1.637-3.228-3.082-9.854,1.65-11.297c4.731-1.443,7.438,5.163,1.241,7.041c0,0,2.895,4.068,6.025,0.889
		c3.133-3.181,0.574-8.303-4.304-9.205c-4.878-0.902-7.839,3.187-7.965,7.614c-0.126,4.428,2.719,8.613,5.04,12.717
		C58.562,29.405,61.34,37.154,57.852,42.882z"/>
</g>
</svg>
