<?xml version="1.0" encoding="utf-8"?>
<!-- Generator: Adobe Illustrator 16.0.0, SVG Export Plug-In . SVG Version: 6.00 Build 0)  -->
<!DOCTYPE svg PUBLIC "-//W3C//DTD SVG 1.1//EN" "http://www.w3.org/Graphics/SVG/1.1/DTD/svg11.dtd">
<svg version="1.1" id="Layer_1" xmlns="http://www.w3.org/2000/svg" xmlns:xlink="http://www.w3.org/1999/xlink" x="0px" y="0px"
	 width="200px" height="200px" viewBox="0 0 200 200" enable-background="new 0 0 200 200" xml:space="preserve">
<g>
	<path fill="#951B1E" d="M122.621,75.291c-3.758-3.762-8.18-6.951-13.155-9.087c-4.983-2.116-10.417-3.118-15.837-3.15
		c-4.997-0.024-9.966,0.774-14.743,2.222c-2.967-4.311-6.043-8.539-9.246-12.679c-3.455-4.467-7.041-8.848-10.831-13.072
		c-3.655-4.069-7.473-8.023-11.634-11.685l3.004,2.19l-3.126-8.806L45.5,16.85c0.117-0.042,0.236-0.082,0.354-0.122l5.555,6.461
		l6.368,7.405l-1.038-9.748l-0.748-7.023c0.032-0.008,0.064-0.015,0.096-0.022l1.72,2.752l5.297,8.475l0.5-10.008l0.136-2.692
		c0.472-0.073,0.945-0.144,1.418-0.212l1.84,6.623l2.716,9.772l3.376-9.573l2.722-7.713c2.534-0.072,5.07-0.051,7.601,0.084
		c2.373,0.126,4.739,0.349,7.092,0.664l0.165,4.981l0.333,10.17l5.511-8.536l3.182-4.929c2.508,0.599,4.99,1.305,7.44,2.116
		c2.335,0.773,4.64,1.646,6.909,2.602l-1.461,5.748l-2.389,9.393l7.26-6.358l5.342-4.676c2.234,1.204,4.428,2.483,6.578,3.842
		l-2.135,8.489l-2.162,8.599l6.6-5.834l6.234-5.511c2.891,2.198,5.686,4.533,8.395,6.969l-3.805,3.894l-5.332,5.455l7.393-1.568
		l8.238-1.746c1.879,2.075,3.703,4.174,5.418,6.342l-6.725,5.866l-4.367,3.811l5.68-0.748l5.947-0.784l5.002-0.676
		c0.654,1.116,1.293,2.237,1.912,3.374c0.633,1.164,1.238,2.34,1.828,3.525l-2.314,2.038l-2.875,2.529l3.742-0.507l3.314-0.449
		c0.883,1.957,1.723,3.934,2.473,5.946c0.67,1.787,1.271,3.6,1.805,5.434c0.096,0.019,0.191,0.037,0.289,0.05
		c0.203,0.069,0.406,0.162,0.609,0.278c0.203,0.119,0.387,0.229,0.557,0.33c0.041,0.028,0.08,0.059,0.117,0.087
		c-0.486-2.269-1.08-4.512-1.768-6.729c-0.732-2.353-1.553-4.678-2.479-6.961l-0.283-0.7l-0.799,0.071l-0.277,0.024l0.234-0.186
		l0.717-0.575l-0.387-0.898c-0.658-1.532-1.352-3.048-2.078-4.55c-0.725-1.5-1.482-2.992-2.27-4.458l-0.447-0.831l-1.006,0.087
		l-5.977,0.526l-0.215,0.02l3.957-3.191l1.391-1.12l-1.066-1.52c-2.273-3.238-4.764-6.28-7.287-9.237l-0.777-0.912l-1.248,0.226
		l-1.98,0.354l0.32-0.307l1.756-1.694l-1.789-1.767c-3.807-3.762-7.85-7.302-12.107-10.588l-1.646-1.271l-1.639,1.383l-1.229,1.038
		l0.541-2.001l0.523-1.922l-1.688-1.155c-3.361-2.301-6.848-4.439-10.461-6.354l-1.752-0.929l-1.092,0.933l0.377-1.41l-2.35-1.093
		c-6.39-2.974-13.113-5.274-20.015-6.81l-2.114-0.47l-0.081,0.124l-0.005-0.18l-2.592-0.43c-6.86-1.14-13.846-1.537-20.783-1.164
		l-2.152,0.116l-0.708,2.026l-0.074,0.209l-0.593-2.116l-2.694,0.313c-2.345,0.271-4.678,0.631-6.994,1.073l-2.477,0.473
		l-0.003,0.057l-0.76,0.17c-1.703,0.382-3.396,0.805-5.079,1.27l-2.572,0.712l0.307,2.622l0.005,0.053l-0.509-0.578l-1.333-1.509
		l-1.865,0.645c-1.74,0.6-3.465,1.246-5.173,1.939l-2.667,1.083l0.4,1.071L37.44,13.85l-1.447,0.685
		c-1.085,0.514-2.161,1.049-3.23,1.614c-0.534,0.281-1.066,0.57-1.598,0.869l-0.799,0.458l-0.403,0.239l-0.433,0.266l-4.744,2.914
		l5.217,1.953c2.352,0.88,4.678,2.146,6.915,3.603c2.241,1.455,4.407,3.098,6.511,4.836c4.199,3.494,8.178,7.342,11.996,11.357
		c3.813,4.023,7.486,8.205,11.044,12.488c3.549,4.292,7.006,8.674,10.328,13.147l0.788,1.062l1.177-0.438
		c4.773-1.767,9.818-2.914,14.912-3.126c5.093-0.214,10.25,0.499,15.063,2.257c4.82,1.75,9.268,4.567,13.146,8.032
		c1.943,1.73,3.762,3.618,5.424,5.641c1.668,2.022,3.197,4.163,4.635,6.368c-1.262-2.31-2.645-4.563-4.193-6.708
		C126.207,79.219,124.506,77.175,122.621,75.291z"/>
	<path fill="#951B1E" d="M88.102,164.347c-1.655,1.951-3.305,3.905-4.941,5.871l-4.916,5.889l-4.899,5.904l-1.119,1.357
		l-0.015-1.251l-0.007-0.59l0.007-0.53l0.015-1.179l0.098-8.059l0.189-0.226c2.437-2.917,4.888-5.816,7.309-8.746
		c2.432-2.92,4.846-5.854,7.258-8.791l3.603-4.42l3.576-4.441c2.389-2.958,4.751-5.939,7.092-8.94
		c-2.713,2.669-33.962,34.622-33.962,34.622l0.194,9.021l0.026,1.18l0.017,0.648l0.028,0.588l0.115,2.354l0.243,4.708l0.305,5.925
		l3.51-4.668l4.611-6.129l4.588-6.148l4.572-6.16c1.526-2.053,3.039-4.114,4.548-6.181c3.013-4.134,6.06-8.242,9.039-12.404
		c2.998-4.146,5.977-8.307,8.915-12.502c-3.389,3.84-6.734,7.712-10.062,11.599C94.69,156.521,91.413,160.446,88.102,164.347z"/>
	<path fill="#951B1E" d="M103.273,159.997l-3.487,4.511l-3.461,4.531c-2.296,3.027-4.589,6.06-6.864,9.102
		c-2.286,3.036-4.538,6.094-6.808,9.142l-0.175,0.236l-7.817,1.969l-0.419,0.106l-2.181,2.899l-1.97,2.62l0.948-0.177l2.316-0.436
		l0.578-0.108l0.635-0.135l1.153-0.249l8.82-1.909l4.506-7.103c0,0,1.982-3.313,3.07-5.005c2.066-3.189,4.114-6.391,6.158-9.596
		l3.05-4.815l3.022-4.837c2.017-3.222,4.01-6.462,5.974-9.722C107.946,153.994,105.598,156.986,103.273,159.997z"/>
	<path fill="#951B1E" d="M125.625,146.123c0.008-0.071,0.002-0.137-0.006-0.2c-0.068-2.407-1.803-4.265-4.23-4.485
		c-0.42-0.038-0.826-0.008-1.213,0.077c-4.49-3.449-8.98-6.898-13.471-10.349c-0.139-2.328-1.85-4.111-4.223-4.328
		c-2.493-0.227-4.472,1.894-4.687,4.235c-0.227,2.492,1.893,4.474,4.235,4.687c0.396,0.036,0.777,0.013,1.141-0.061
		c4.506,3.461,9.011,6.922,13.518,10.383c0.023,2.297,2.037,4.076,4.25,4.277c2.428,0.221,4.371-1.787,4.666-4.057
		C125.617,146.247,125.623,146.188,125.625,146.123z M99.341,131.152c0.016-1.643,1.521-2.785,3.063-2.771
		c1.641,0.019,2.784,1.521,2.769,3.064C104.83,135.198,99.303,134.92,99.341,131.152z M117.008,144.376
		c-4.077-3.13-8.152-6.263-12.23-9.394c0.717-0.524,1.277-1.268,1.612-2.106c4.069,3.125,8.136,6.25,12.206,9.376
		C117.887,142.786,117.334,143.535,117.008,144.376z M118.248,145.751c0.012-1.134,0.734-2.029,1.686-2.469
		c0.004,0.002,0.01,0.005,0.014,0.007c0.031-0.018,0.066-0.036,0.1-0.054c0.396-0.166,0.828-0.257,1.266-0.252
		c1.641,0.015,2.783,1.52,2.768,3.063C123.74,149.798,118.211,149.52,118.248,145.751z"/>
	<polygon fill="#951B1E" points="115.07,128.458 117.314,138.454 118.834,135.557 116.84,126.681 	"/>
	<polygon fill="#951B1E" points="120.975,122.532 122.381,128.789 123.533,126.589 122.318,121.184 	"/>
	<polygon fill="#951B1E" points="118.113,125.402 119.926,133.472 121.289,130.872 119.701,123.81 	"/>
	<polygon fill="#951B1E" points="109.492,134.055 112.338,136.144 113.959,137.334 115.807,138.689 113.797,129.736 	"/>
	<path fill="#951B1E" d="M131.906,116.787c-0.188-2.251-1.891-3.896-4.176-3.994c-2.35-0.101-4.1,1.99-4.193,4.193
		c-0.037,0.864,0.225,1.646,0.678,2.296l-0.621,0.623l1.033,4.6l1.861-3.556c0.4,0.133,0.82,0.212,1.242,0.231
		c2.285,0.097,4.002-1.879,4.182-4.015c0.01-0.055,0.014-0.115,0.01-0.18C131.926,116.913,131.92,116.849,131.906,116.787z
		 M125.063,116.986c-0.064-1.501,1.262-2.608,2.668-2.668c1.5-0.064,2.607,1.263,2.668,2.668
		C130.252,120.428,125.209,120.428,125.063,116.986z"/>
	<path fill="#951B1E" d="M81.437,77.323l0.912-0.341l0.908-0.321c4.86-1.659,10.005-2.603,15.158-2.557
		c5.153,0.039,10.334,1.149,15.06,3.346c2.367,1.102,4.609,2.498,6.717,4.086c2.119,1.582,4.078,3.39,5.912,5.328
		c-1.596-2.141-3.404-4.133-5.389-5.958c-1.99-1.816-4.182-3.433-6.543-4.793c-1.182-0.677-2.404-1.295-3.666-1.829
		c-1.254-0.527-2.561-0.987-3.87-1.373c-2.632-0.775-5.353-1.268-8.099-1.484c-2.747-0.227-5.519-0.146-8.257,0.161
		c-2.74,0.306-5.455,0.848-8.108,1.613l-0.993,0.295L80.2,73.805c-0.653,0.212-1.313,0.438-1.973,0.688
		c-0.662,0.251-1.324,0.527-1.984,0.837l-0.247,0.12l-0.166,0.085l-0.172,0.103l-0.125,0.084c-0.319,0.227-0.578,0.483-0.804,0.787
		c-0.222,0.301-0.416,0.648-0.54,1.084c-0.125,0.432-0.171,0.974-0.034,1.522c0.067,0.272,0.178,0.537,0.315,0.77
		c0.068,0.118,0.143,0.225,0.222,0.325c0.068,0.089,0.188,0.219,0.192,0.223l0.335,0.371l0.669,0.742l1.341,1.483l1.12,1.24
		c-0.357,0.276-0.709,0.553-1.044,0.824l-0.157,0.129l-0.078,0.063l-0.152,0.135l-0.289,0.263l-0.59,0.549
		c-0.391,0.372-0.779,0.759-1.163,1.165l-0.018,0.019l-2.213-2.205l-2.033-2.538l-3.333-4.16l-1.057,5.296
		c-0.96,4.805-1.919,9.61-2.852,14.422c-0.941,4.808-1.879,9.616-2.791,14.43c-0.92,4.812-1.843,9.624-2.735,14.442
		c-0.896,4.816-1.812,9.63-2.683,14.45l-0.854,4.722l4.543-1.442c0.47-0.15,0.857-0.283,1.277-0.429l1.225-0.439
		c0.559-0.206,1.107-0.427,1.659-0.644l-2.474,9.393l-1.265,4.798l4.715-1.407l3.127-0.935l0.088,5.814l0.089,4.816l6.175-6.356
		l0.166-4.19l0.273-7.498l0.063-1.873l0.031-0.938l0.016-0.47l0.004-0.116l0.002-0.049c-0.004,0.099-0.001,0.005-0.002,0.036
		l0.001-0.008l0.001-0.014l0.015-0.234c0.052-0.786,0.091-1.573,0.134-2.36c1.161-0.733,10.663-16.539,13.22-20.816l10.385,6.616
		L68.985,97.29c0.441-2.524,0.875-5.048,1.307-7.574l3.034,2.822l2,1.859l1.513-2.138c0.11-0.152,0.235-0.303,0.382-0.451
		l0.166-0.169l0.072-0.097c0.128-0.171,0.262-0.345,0.399-0.515l0.201-0.245l0.234-0.271c0.3-0.343,0.619-0.683,0.949-1.023
		l0.505-0.505l0.266-0.259l0.034-0.034l0.007-0.007l0.013-0.012l0.134-0.117c0.377-0.328,0.739-0.638,1.106-0.938l0.138-0.113
		l0.058-0.062c0.408-0.423,0.852-0.829,1.329-1.217l0.79-0.637l0.178-0.102l0.705-0.382c3.773-2,7.887-3.512,12.147-4.293
		c4.259-0.785,8.692-0.783,12.905,0.098c2.109,0.443,4.158,1.125,6.125,1.968c1.971,0.838,3.846,1.869,5.635,3.014
		c-1.619-1.333-3.396-2.524-5.293-3.563c-1.9-1.03-3.939-1.883-6.082-2.517c-1.07-0.317-2.168-0.582-3.286-0.777
		c-1.108-0.192-2.253-0.326-3.39-0.406c-2.281-0.158-4.596-0.093-6.894,0.181c-2.3,0.266-4.577,0.764-6.792,1.425
		c-2.219,0.659-4.382,1.49-6.463,2.477l-0.212,0.103l-2.626-2.665l-1.402-1.424l-0.212-0.214c0.327-0.16,0.66-0.319,1.003-0.467
		C80.243,77.79,80.833,77.553,81.437,77.323z M77.844,78.935c-0.007,0.005-0.013,0.008-0.021,0.012
		c-0.02,0.014-0.044,0.028-0.066,0.039l0.047-0.029c0.014-0.007-0.074,0.04-0.031,0.017l0.013-0.007l0.024-0.013l0.035-0.019
		C77.845,78.935,77.844,78.935,77.844,78.935z M83.11,120.369c-0.169,0.173-0.405,0.403-0.617,0.606l-0.664,0.628
		c-0.446,0.42-0.901,0.835-1.363,1.245c-0.922,0.819-1.867,1.619-2.83,2.395c-1.925,1.555-3.92,3.019-5.976,4.37
		c-2.05,1.361-4.164,2.611-6.336,3.705c-0.7,0.353-1.409,0.682-2.121,1l0.904-4.976l1.766-9.991l1.726-9.996
		c0.36-2.065,0.705-4.137,1.05-6.205l2.471,2.159l5.387,4.674c3.033,2.621,6.077,5.231,9.128,7.832L83.11,120.369z"/>
</g>
</svg>
