<?xml version="1.0" encoding="utf-8"?>
<!-- Generator: Adobe Illustrator 16.0.0, SVG Export Plug-In . SVG Version: 6.00 Build 0)  -->
<!DOCTYPE svg PUBLIC "-//W3C//DTD SVG 1.1//EN" "http://www.w3.org/Graphics/SVG/1.1/DTD/svg11.dtd">
<svg version="1.1" id="Layer_1" xmlns="http://www.w3.org/2000/svg" xmlns:xlink="http://www.w3.org/1999/xlink" x="0px" y="0px"
	 width="100px" height="100px" viewBox="0 0 100 100" enable-background="new 0 0 100 100" xml:space="preserve">
<g>
	<path fill="#DBA94B" d="M58.322,15.751c0,0,0.323-1.289-0.429-2.469c-0.75-1.18-3.219-2.79-1.61-4.508c0,0,0.107,1.396,1.826,2.577
		c1.718,1.18,1.61,2.682,1.61,2.682s-1.183-4.293,3.861-4.399c0,0-3.217,1.932-2.254,4.937c0,0,0.755-1.073,2.361-0.537
		c1.61,0.537,2.039,0.751,3.005-0.43c0,0-0.966,3.111-4.294,2.361C59.075,15.214,58.322,15.751,58.322,15.751z"/>
	<path fill="#DBA94B" d="M63.581,18.111c0,3.378-2.737,6.118-6.116,6.118c-3.378,0-6.117-2.739-6.117-6.118
		c0-2.858,1.962-5.25,4.611-5.922c-0.292-0.325-0.591-0.669-0.819-1.027c-0.224-0.016-0.45-0.026-0.679-0.026
		c-5.513,0-9.981,4.469-9.981,9.981c0,5.513,4.468,9.981,9.981,9.981c5.512,0,9.98-4.468,9.98-9.981
		c0-1.584-0.372-3.081-1.029-4.412C63.52,17.157,63.581,17.627,63.581,18.111z"/>
	<path fill="#DBA94B" d="M54.354,33.888c-1.197,0-2.354-0.175-3.447-0.496c-1.675,0.973-3.914,1.569-6.374,1.569
		c-5.186,0-9.39-2.643-9.39-5.903c0-2.761,3.019-5.08,7.094-5.724c-0.044-0.321-0.078-0.646-0.096-0.976
		c-0.519-0.037-1.044-0.06-1.578-0.06c-7.853,0-14.219,4.204-14.219,9.391c0,5.185,6.366,9.389,14.219,9.389
		c6.707,0,12.325-3.065,13.824-7.189C54.375,33.888,54.364,33.888,54.354,33.888z"/>
	<path fill="#DBA94B" d="M33.318,22.619c0,0-2.253-3.327-5.151-3.863c-2.898-0.537-7.941-5.795-4.079-8.801
		c3.864-3.005,6.44,0.429,8.908-1.181c2.469-1.609,0.43-5.58,5.044-5.688c4.615-0.106,3.327,3.649,6.546,3.649
		c3.22,0,4.079-2.79,6.44-0.322c2.361,2.469-1.073,4.937-1.073,4.937s0.43-2.576-2.147-2.897c-2.576-0.322-3.756,0.966-5.581-0.859
		c-1.825-1.823-3.648-1.502-4.829,1.288c-1.181,2.79-2.039,3.649-5.366,2.039s-4.293,0.214-4.186,2.468
		C27.952,15.644,33.533,15.107,33.318,22.619z"/>
	<path fill="#DBA94B" d="M36.323,11.888c0,0-0.644,1.18-2.253,0.644l5.58,9.014L36.323,11.888z"/>
	<path fill="#DBA94B" d="M42.333,9.634c0,0,0.645,1.073,2.146,0.643c1.503-0.429-0.107,0.215-0.107,0.215l-2.468,10.303
		L42.333,9.634z"/>
	<path fill="#DBA94B" d="M64.145,29.113c-0.395,0.483-0.82,0.938-1.282,1.356c2.538,1.522,4.047,3.41,4.047,5.458
		c0,5.037-9.106,9.123-20.337,9.123c-11.231,0-20.336-4.085-20.336-9.123c0-0.06,0.008-0.119,0.01-0.179
		c-0.215,0.582-0.333,1.179-0.333,1.788c0,5.928,10.571,10.733,23.61,10.733c13.039,0,23.609-4.805,23.609-10.733
		C73.133,34.121,69.618,31.079,64.145,29.113z"/>
	<path fill="#DBA94B" d="M56.02,49.62c0.051-0.281,0.137-0.567,0.239-0.854c-0.578,0.039-1.165,0.071-1.757,0.1
		c-0.092,1.318-0.038,2.906,0.242,4.815c1.352,9.181,0.901,10.416-1.576,10.064c-1.777-0.255-0.888-10.2-0.41-14.811
		c-0.677,0.022-1.358,0.04-2.049,0.047c0.148,4.131,0.874,15.267-1.476,15.203c-2.353,0.064-1.625-11.071-1.476-15.203
		c-0.691-0.008-1.373-0.025-2.051-0.047c0.477,4.61,1.369,14.556-0.41,14.811c-2.477,0.352-2.927-0.884-1.576-10.064
		c0.281-1.909,0.335-3.497,0.242-4.815c-0.591-0.029-1.178-0.061-1.757-0.1c0.104,0.288,0.189,0.575,0.239,0.854
		c0.45,2.53-1.425,9.445-1.988,13.33c-0.564,3.886-0.225,6.356,1.914,10.152c0.999,1.772,2.621,2.756,4.064,3.297
		c0.533,2.354,1.932,9.109,1.615,13.889c-0.101,1.539-0.213,3.257-0.369,5.025c0.61,0.039,1.222,0.068,1.843,0.068
		c0.424,0,0.844-0.011,1.264-0.031c-0.158-1.781-0.27-3.513-0.374-5.063c-0.315-4.772,1.08-11.516,1.614-13.878
		c1.44-0.543,3.063-1.526,4.067-3.308c2.139-3.796,2.477-6.267,1.913-10.152C57.445,59.064,55.57,52.149,56.02,49.62z
		 M49.233,75.257c-2.267,0-4.104-1.786-4.104-3.992c0-0.167,0.014-0.33,0.035-0.492c1.047,1.002,2.483,1.623,4.069,1.623
		s3.021-0.621,4.069-1.623c0.02,0.162,0.033,0.325,0.033,0.492C53.335,73.471,51.499,75.257,49.233,75.257z"/>
</g>
</svg>
