<?xml version="1.0" encoding="utf-8"?>
<!-- Generator: Adobe Illustrator 16.0.0, SVG Export Plug-In . SVG Version: 6.00 Build 0)  -->
<!DOCTYPE svg PUBLIC "-//W3C//DTD SVG 1.1//EN" "http://www.w3.org/Graphics/SVG/1.1/DTD/svg11.dtd">
<svg version="1.1" id="Layer_1" xmlns="http://www.w3.org/2000/svg" xmlns:xlink="http://www.w3.org/1999/xlink" x="0px" y="0px"
	 width="100px" height="100px" viewBox="0 0 100 100" enable-background="new 0 0 100 100" xml:space="preserve">
<g>
	<path fill="#DBA94B" d="M47.875,77.556c-2.34,0-4.237,1.896-4.237,4.235c0,2.341,1.896,4.237,4.237,4.237s4.236-1.896,4.236-4.237
		C52.111,79.451,50.216,77.556,47.875,77.556z M48.982,82.658c-1.197,0-2.167-0.97-2.167-2.166c0-1.197,0.97-2.167,2.167-2.167
		c1.197,0,2.166,0.97,2.166,2.167C51.148,81.688,50.18,82.658,48.982,82.658z"/>
	<path fill="#DBA94B" d="M51.783,85.338c-0.109,0.116-0.223,0.228-0.342,0.333c2.356,1.68,6.151,4.9,3.562,6.712
		c-3.609,2.528-8.449,1.012-7.654-2.672c0.234-1.085,0.543-1.974,0.862-2.689c-0.115,0.008-0.229,0.018-0.346,0.018
		c-1.542,0-2.929-0.652-3.91-1.692c-1.639,1.138-7.353,5.567-6.862,6.242c0.571,0.786,3.404,3.334,10.658,3.601V95.2
		c0.042-0.002,0.082-0.004,0.123-0.006c0.042,0.002,0.082,0.004,0.124,0.006v-0.011c7.253-0.267,10.086-2.814,10.659-3.601
		C59.148,90.912,53.403,86.461,51.783,85.338z"/>
	<path fill="#DBA94B" d="M41.813,42.048c2.176,1.905,3.646,2.348,5.884,2.285c2.238-0.064,4.238-0.532,6.241-2.285
		c3.598-3.147,5.684-0.647,9.312-0.92c0.161-0.909,0.251-1.843,0.251-2.798c0-4.948-2.973-12.52-8.853-13.428
		c-5.88-0.907-8.768,7.252-4.146,9.563c3.844,1.923,5.561-1.083,5.561-1.083c-0.866,1.083-4.333-0.217-4.694-1.733
		c-0.359-1.517,0.27-4.272,4.405-3.756c3.467,0.434,6.065,8.956-0.506,11.338c-7.238,2.625-12.998-3.611-10.326-10.255
		c1.979-4.918,5.104-5.817,6.723-5.985c-1.282-0.334-2.627-0.514-4.015-0.514c-8.755,0-15.852,7.098-15.852,15.853
		c0,0.938,0.086,1.855,0.243,2.749C35.958,41.62,38.064,38.77,41.813,42.048z"/>
	<path fill="#DBA94B" d="M32.151,30.75l-8.154-16.649l-3.827,4.045l10.746,16.269C31.197,33.135,31.613,31.908,32.151,30.75z"/>
	<path fill="#DBA94B" d="M61.396,27.406c1.638,2.117,2.808,4.623,3.351,7.361l0.27-0.447l14.154-23.469l-8.232-6.788l-0.714,1.746
		l0.001,0.005L61.396,27.406z M65.363,31.888l-2.007-7.021l2.604-6.126l0.994,10.414L65.363,31.888z M71.679,21.044l-1.457,2.501
		l-2.533-8.867l2.763-6.499L71.679,21.044z"/>
	<path fill="#DBA94B" d="M65.018,36.694c0.032,0.365,0.05,0.733,0.06,1.104c2.893,0.787,5.154,2.055,1.716,3.888
		c-6.108,3.258-8.233-2.022-12.855,2.022c-2.003,1.753-4.003,2.221-6.241,2.284c-2.238,0.063-3.708-0.379-5.884-2.284
		c-4.622-4.044-6.747,1.235-12.855-2.022c-3.372-1.798-1.262-3.053,1.55-3.843c0.009-0.378,0.028-0.752,0.059-1.123
		c-2.834,0.452-8.177,1.616-7.964,3.956c0.289,3.177,7.077,1.3,9.677,9.244c2.377,7.264-0.917,23.099,11.753,27.965
		c0.976-0.991,2.332-1.606,3.832-1.606c1.503,0,2.861,0.617,3.837,1.612c12.688-4.859,9.39-20.704,11.769-27.971
		c2.6-7.944,9.388-6.067,9.678-9.244C73.364,38.291,67.805,37.127,65.018,36.694z M59.312,68.913
		c-2.528,5.994-7.293,7.871-7.293,7.871c0.649-0.288,2.237-7.366-0.578-16.104c-2.817-8.737,1.154-14.082,4.837-16.321
		c3.685-2.238,7.8-0.505,7.8-0.505C58.444,46.743,61.838,62.919,59.312,68.913z"/>
</g>
</svg>
