<?xml version="1.0" encoding="utf-8"?>
<!-- Generator: Adobe Illustrator 16.0.0, SVG Export Plug-In . SVG Version: 6.00 Build 0)  -->
<!DOCTYPE svg PUBLIC "-//W3C//DTD SVG 1.1//EN" "http://www.w3.org/Graphics/SVG/1.1/DTD/svg11.dtd">
<svg version="1.1" id="Layer_1" xmlns="http://www.w3.org/2000/svg" xmlns:xlink="http://www.w3.org/1999/xlink" x="0px" y="0px"
	 width="100px" height="100px" viewBox="0 0 100 100" enable-background="new 0 0 100 100" xml:space="preserve">
<g>
	<path fill="#DBA94B" d="M52.871,27.258C34,27.847,23.974,44.36,19.453,47.309S11,48.096,8.051,48.096s-2.556,7.863-0.196,12.582
		c2.359,4.715,5.111,6.486,9.042,6.289c3.933-0.195,2.949-8.648,7.864-12.777c4.914-4.128,17.102-5.505,24.375-6.292
		c7.274-0.785,20.249,0.198,27.522,1.376c7.273,1.181,12.133,0.564,13.367-1.965C94.154,38.856,71.744,26.668,52.871,27.258z
		 M22.925,54.518c-2.096,2.096-4.063,11.139-7.076,9.305c-3.014-1.836-6.16-5.635-5.635-8.52c0.523-2.881,1.703-2.49,4.98-2.359
		c3.275,0.133,9.042-0.131,12.711-2.621C27.906,50.323,25.023,52.42,22.925,54.518z M87.535,48.227
		c-1.768,0.916-6.158,0.916-12.713-0.131c-6.553-1.049-16.773-1.573-23.195-1.312c-6.421,0.262-11.795-2.228-11.665-6.028
		c0.131-3.802,5.767-9.173,13.499-10.615c7.732-1.441,14.418-0.918,23.59,3.145c9.174,4.064,11.336,7.93,12.057,10.027
		C89.828,45.409,89.305,47.309,87.535,48.227z"/>
	<circle fill="#DBA94B" cx="79.803" cy="41.936" r="2.031"/>
	<circle fill="#DBA94B" cx="34.099" cy="60.088" r="2.032"/>
	<path fill="#DBA94B" d="M74.109,41.186c0,0,1.344-5.183-2.803-4.51c-4.15,0.673-2.662,8.695,2.586,11.943
		c0,0-4.229-5.127-3.789-8.117C70.539,37.512,74.496,38.167,74.109,41.186z"/>
	<path fill="#DBA94B" d="M70.564,28.929l-4.326-6.882c0,0-9.828,0.591-20.542,4.719C45.697,26.766,61.521,24.899,70.564,28.929z"/>
	<path fill="#DBA94B" d="M44.418,70.9l6.35,5.578c0,0,8.458-4.072,17.175-11.805C67.943,64.674,56.344,72.932,44.418,70.9z"/>
	<path fill="#DBA94B" d="M62.209,49.471c-9.24-0.59-11.991,0.099-19.461,0.983c-7.47,0.885-18.773,7.569-19.756,11.793
		c-0.982,4.229,13.76,8.16,27.521,7.863c13.76-0.295,32.239-19.263,32.239-19.263C80.098,52.025,71.449,50.061,62.209,49.471z
		 M37.472,67.557c-3.801,0.982-12.711-1.77-13.104-5.176c-0.445-3.861,14.81-9.83,14.81-9.83
		C45.992,56.221,41.273,66.574,37.472,67.557z M59.293,66.246c-6.225,1.967-13.76-0.787-13.825-4.717
		c-0.066-3.934,4.586-8.389,12.188-8.848c7.6-0.459,18.674,1.9,20.51,1.246C78.166,53.928,65.518,64.281,59.293,66.246z"/>
	<path fill="#DBA94B" d="M69.818,24.651l0.916,1.458c8.867,2.754,16.035,7.224,20.297,12.687
		C87.098,32.698,79.494,27.672,69.818,24.651z M3.333,48.315c0,2.671,0.664,5.248,1.896,7.681c-0.121-1.09-0.173-2.145-0.18-3.125
		c-0.115-0.801-0.18-1.611-0.18-2.43c0-15.099,20.25-27.339,45.23-27.339c1.391,0,2.764,0.042,4.124,0.117
		c1.564-0.399,3.049-0.732,4.42-1.007c-3.213-0.427-6.553-0.655-9.984-0.655C23.627,21.557,3.333,33.538,3.333,48.315z"/>
	<path fill="#DBA94B" d="M17.859,67.941c-0.817,0.102-1.604,0.133-2.36,0.1c8.226,5.898,20.499,9.666,34.237,9.734l-3.106-2.73
		C35.537,74.756,25.481,72.111,17.859,67.941z M91.031,38.795c1.908,2.957,2.957,6.166,2.957,9.52
		c0,13.216-16.227,24.191-37.559,26.367c-2.471,1.523-4.381,2.561-5.4,3.09c24.551-0.299,44.305-12.418,44.305-27.331
		C95.334,46.276,93.789,42.328,91.031,38.795z"/>
</g>
</svg>
