<?xml version="1.0" encoding="utf-8"?>
<!-- Generator: Adobe Illustrator 16.0.0, SVG Export Plug-In . SVG Version: 6.00 Build 0)  -->
<!DOCTYPE svg PUBLIC "-//W3C//DTD SVG 1.1//EN" "http://www.w3.org/Graphics/SVG/1.1/DTD/svg11.dtd">
<svg version="1.1" id="Layer_1" xmlns="http://www.w3.org/2000/svg" xmlns:xlink="http://www.w3.org/1999/xlink" x="0px" y="0px"
	 width="100px" height="100px" viewBox="0 0 100 100" enable-background="new 0 0 100 100" xml:space="preserve">
<g>
	<g>
		<path fill="#DBA94B" d="M64.649,34.515c1.712-5.84-1.634-11.962-7.475-13.675c-0.306-0.09-0.611-0.163-0.918-0.225
			c1.453,0.86,5.402,1.882,7.365,7.171C65.585,33.074,61.996,37.421,59,38c-2.998,0.577-3.113-3.999-4.789-3.547
			c-1.674,0.452-0.117,3.907-4.162,4.263c-4.007,0.353-9.507-10.233,1.597-18.05c-3.771,0.856-6.979,3.672-8.145,7.646
			c-1.713,5.84,1.633,11.962,7.473,13.675C56.813,43.699,62.936,40.354,64.649,34.515z"/>
		<path fill="#DBA94B" d="M57.041,33.021c0,0,5.429-0.125,3.836,2.411C59.28,37.969,57.041,33.021,57.041,33.021z"/>
		<path fill="#DBA94B" d="M57.891,30.047c0,0,3.823-3.856,4.434-0.924C62.936,32.056,57.891,30.047,57.891,30.047z"/>
		<path fill="#DBA94B" d="M55.817,26.617c0,0,0.755-5.378,2.999-3.394C61.063,25.207,55.817,26.617,55.817,26.617z"/>
		<path fill="#DBA94B" d="M52.84,27.383c0,0-5.328-1.051-3.223-3.184C51.722,22.068,52.84,27.383,52.84,27.383z"/>
		<path fill="#DBA94B" d="M51.366,30.103c0,0-4.565,2.939-4.528-0.056C46.876,27.051,51.366,30.103,51.366,30.103z"/>
		<path fill="#DBA94B" d="M52.65,33.9c0,0-1.899,5.088-3.662,2.667C47.225,34.145,52.65,33.9,52.65,33.9z"/>
	</g>
	<g>
		<path fill="#DBA94B" d="M49.38,72.244c-1.678,1.219-3.708,1.994-5.931,2.131c-6.213,0.383-11.56-4.346-11.942-10.559
			c-0.292-4.764,2.422-9.018,6.505-10.914l-0.185-0.318c-4.632,2.139-7.711,6.957-7.38,12.357
			c0.432,7.029,6.48,12.375,13.509,11.943c2.521-0.154,4.825-1.035,6.726-2.424L49.38,72.244z"/>
		<path fill="#DBA94B" d="M37.736,52.613l10.683,23.164c0.551-0.305,1.425-0.807,2.244-1.348L37.961,52.834L37.736,52.613z"/>
		<path fill="#DBA94B" d="M36.811,61.553c0,0-4.282,1.818-3.816-0.707C33.462,58.324,36.811,61.553,36.811,61.553z"/>
		<path fill="#DBA94B" d="M36.787,65.662c0,0-3.473,3.096-3.841,0.559C32.579,63.678,36.787,65.662,36.787,65.662z"/>
		<path fill="#DBA94B" d="M38.345,68.092c0,0-0.401,4.635-2.411,3.041C33.924,69.539,38.345,68.092,38.345,68.092z"/>
		<path fill="#DBA94B" d="M41.109,69.699c0,0,1.569,4.381-0.922,3.771C37.693,72.857,41.109,69.699,41.109,69.699z"/>
		<path fill="#DBA94B" d="M43.967,69.686c0,0,3.463,3.105,0.981,3.754C42.464,74.088,43.967,69.686,43.967,69.686z"/>
		<path fill="#DBA94B" d="M38.144,58.955c0,0-4.508-1.148-2.609-2.873C37.435,54.357,38.144,58.955,38.144,58.955z"/>
		<path fill="#DBA94B" d="M46.24,68.984c-0.407,0.115-0.834,0.188-1.273,0.217c-3.301,0.201-6.142-2.309-6.344-5.609
			c-0.121-1.984,0.736-3.799,2.155-4.979L46.24,68.984z"/>
	</g>
	<path fill="#DBA94B" d="M74.538,27.844c-2.826-0.599-5.738,1.855-6.505,5.481c-0.769,3.626,0.899,7.049,3.726,7.648
		c2.826,0.597,5.738-1.857,6.506-5.483C79.032,31.865,77.364,28.441,74.538,27.844z M73.471,37.167
		c-1.773-0.376-2.814-2.54-2.327-4.834c0.485-2.293,2.314-3.85,4.085-3.476c1.773,0.376,2.813,2.539,2.327,4.834
		C77.072,35.987,75.24,37.542,73.471,37.167z"/>
	<path fill="#DBA94B" d="M79.493,49.343c-0.108-2.385-2.68-4.208-5.741-4.069c-3.064,0.139-5.457,2.187-5.349,4.573
		s2.678,4.208,5.742,4.069C77.206,53.775,79.601,51.729,79.493,49.343z M71.806,50.426c-0.069-1.495,1.448-2.78,3.386-2.867
		c1.937-0.088,3.565,1.054,3.633,2.549c0.068,1.496-1.447,2.783-3.386,2.869C73.501,53.064,71.874,51.923,71.806,50.426z"/>
	<path fill="#DBA94B" d="M39.958,12.494c-2.724,0.653-4.252,4.014-3.415,7.51c0.837,3.495,3.723,5.799,6.447,5.146
		c2.724-0.651,4.252-4.014,3.415-7.508C45.57,14.146,42.682,11.843,39.958,12.494z M42.905,21.106
		c-1.707,0.408-3.522-1.053-4.051-3.265c-0.529-2.211,0.425-4.336,2.132-4.746c1.708-0.409,3.522,1.054,4.053,3.265
		C45.569,18.571,44.613,20.697,42.905,21.106z"/>
	<path fill="#DBA94B" d="M25.914,51.41c-1.522-1.298-4.108-0.766-5.775,1.19c-1.666,1.956-1.781,4.593-0.257,5.89
		c1.524,1.297,4.108,0.766,5.775-1.189C27.322,55.346,27.438,52.709,25.914,51.41z M22.182,56.738
		c-0.956-0.814-0.875-2.479,0.179-3.715s2.684-1.581,3.64-0.767c0.955,0.814,0.875,2.478-0.179,3.714
		C24.767,57.209,23.138,57.553,22.182,56.738z"/>
	<path fill="#DBA94B" d="M33.411,35.134c0,0-1.742,2.44-5.75,0.871c0,0,3.312-1.394,1.743-5.229
		c-1.567-3.833-8.132-2.382-10.457,2.847c-2.324,5.229-1.976,12.49,3.717,12.49s3.603-5.577,3.603-5.577s5.752,1.046,5.752,4.358
		C32.019,44.894,37.246,40.884,33.411,35.134z M25.279,38.852c0,0,0.581,0.406,0,1.393c-0.582,0.989-1.395,2.151-3.951,1.046
		c-2.557-1.104-2.266-6.797,0.059-9.121c2.323-2.323,5.343-3.253,6.796-1.626c1.451,1.626,0.639,4.881-1.917,5.636
		c0,0,2.557,1.335,4.88,0.928c2.323-0.407,3.102,0.59,2.671,2.615C33.006,43.557,28.068,37.922,25.279,38.852z"/>
	<g>
		<path fill="#DBA94B" d="M40.929,32.964c-0.781,0.11-1.341,2.491-1.954,3.747c-0.613,1.255-2.964,2.7-2.353,9.153
			c0.611,6.452,4.445,8.597,6.915,7.876c2.468-0.722,0.638-6.899-1.069-7.997c-1.707-1.099-1.646-5.502-0.689-8.171
			C42.736,34.902,41.712,32.854,40.929,32.964z M40.461,39.538c-0.71,2.592-0.151,4.977,1.723,6.866
			c1.874,1.889,0.761,4.24-0.688,4.654c-1.973,0.567-3.45-3.437-3.856-6.032c-0.407-2.595-0.098-5.252,1.097-6.826
			c1.193-1.573,2.142-4.186,2.142-4.186C41.721,36.092,41.174,36.946,40.461,39.538z"/>
		<path fill="#DBA94B" d="M42.228,53.824c0,0-1.292,1.088-1.232,1.449c0.059,0.363,1.487-0.467,1.487-0.467s0.303,1.402,0.685,1.229
			c0.381-0.174,0.362-1.529,0.362-1.529s1.359,0.336,1.52,0.066c0.161-0.268-0.656-1.047-0.656-1.047s1.644,0.027,1.534-0.753
			c-0.11-0.783-2.178,0.003-2.178,0.003S44.05,53.47,42.228,53.824z"/>
		<path fill="#DBA94B" d="M43.168,54.564c0,0,1.019,2.459,2.668,2.074l0.509-0.977c0,0-1.702-0.391-2.033-1.621
			C44.312,54.041,43.354,53.77,43.168,54.564z"/>
	</g>
	<path fill="#DBA94B" d="M61.998,80.08c-0.81,0.662-1.662,1.209-2.631,1.43c-2.578,0.586-5.521-1.391-8.276-1.391
		c-2.757,0-5.697,1.977-8.277,1.391c-2.664-0.604-4.454-3.678-6.857-4.838c-2.442-1.176-5.958-0.676-8.055-2.35
		c-2.107-1.684-2.396-5.227-4.08-7.334c-1.674-2.098-5.068-3.16-6.245-5.604c-1.16-2.402,0.111-5.715-0.494-8.375
		c-0.586-2.581-3.183-5.009-3.183-7.765c0-2.757,2.597-5.184,3.183-7.764c0.605-2.663-0.666-5.973,0.494-8.376
		c1.177-2.442,4.571-3.507,6.245-5.604c1.684-2.107,1.972-5.65,4.08-7.333c2.098-1.676,5.613-1.175,8.055-2.353
		c2.403-1.159,4.193-4.23,6.857-4.836c2.58-0.586,5.52,1.392,8.277,1.392c2.756,0,5.698-1.978,8.276-1.392
		c2.663,0.605,4.456,3.677,6.858,4.836c2.441,1.179,5.957,0.678,8.053,2.353c2.107,1.684,2.398,5.226,4.079,7.333
		c1.678,2.098,5.069,3.162,6.248,5.604c1.158,2.403-0.113,5.713,0.493,8.376c0.585,2.58,3.181,5.006,3.181,7.764
		c0,2.756-2.596,5.184-3.181,7.765c-0.604,2.65,0.655,5.947-0.483,8.348l2.107,0.992c1.702-4.537,2.634-9.449,2.634-14.581
		c0-22.957-18.609-41.565-41.566-41.565c-22.956,0-41.566,18.608-41.566,41.565c0,22.958,18.61,41.565,41.566,41.565
		c5.854,0,11.426-1.211,16.478-3.396L61.998,80.08z"/>
	<path fill="#DBA94B" d="M32.373,26.505c0,0,9.61-1.896,7.559,3.102C37.88,34.604,32.373,26.505,32.373,26.505z"/>
	<path fill="#DBA94B" d="M50.519,18.651c0,0-3.281-7.53,1.181-6.748C56.162,12.685,50.519,18.651,50.519,18.651z"/>
	<path fill="#DBA94B" d="M61.149,13.929c0,0,5.553,3,2.484,4.643C60.563,20.213,61.149,13.929,61.149,13.929z"/>
	<path fill="#DBA94B" d="M31.872,21.748c0,0-3.772,5.06-4.953,1.786C25.737,20.259,31.872,21.748,31.872,21.748z"/>
	<path fill="#DBA94B" d="M30.719,52.891c0,0-2.054-7.011,1.795-5.823C36.364,48.255,30.719,52.891,30.719,52.891z"/>
	<path fill="#DBA94B" d="M29.1,64.506c0,0-5.78,1.752-4.828-1.439C25.226,59.873,29.1,64.506,29.1,64.506z"/>
	<g>
		<g>
			<path fill="#DBA94B" d="M63.901,69.814c0.813-1.531,2.057-2.859,3.68-3.779c4.534-2.566,10.291-0.971,12.858,3.563
				c1.969,3.477,1.486,7.674-0.891,10.602l0.257,0.168c2.699-3.309,3.25-8.064,1.019-12.004c-2.903-5.129-9.419-6.934-14.547-4.031
				c-1.838,1.045-3.248,2.553-4.17,4.295L63.901,69.814z"/>
			<path fill="#DBA94B" d="M79.864,80.314l-16.537-13.51c-0.301,0.432-0.774,1.129-1.192,1.836l17.479,11.588L79.864,80.314z"/>
			<path fill="#DBA94B" d="M77.28,73.248c0,0,2.553-2.939,3.129-0.871S77.28,73.248,77.28,73.248z"/>
			<path fill="#DBA94B" d="M75.792,70.145c0,0,1.476-3.602,2.683-1.826C79.685,70.096,75.792,70.145,75.792,70.145z"/>
			<path fill="#DBA94B" d="M73.728,68.889c0,0-1.399-3.631,0.696-3.17C76.521,66.18,73.728,68.889,73.728,68.889z"/>
			<path fill="#DBA94B" d="M71.057,68.695c0,0-2.786-2.721-0.688-3.176C72.468,65.066,71.057,68.695,71.057,68.695z"/>
			<path fill="#DBA94B" d="M68.911,69.756c0,0-3.744-1.068-2.113-2.465C68.429,65.893,68.911,69.756,68.911,69.756z"/>
			<path fill="#DBA94B" d="M77.231,75.689c0,0,3.813-0.787,3.017,1.205C79.45,78.891,77.231,75.689,77.231,75.689z"/>
			<path fill="#DBA94B" d="M67.46,71.117c0.263-0.236,0.557-0.449,0.879-0.631c2.408-1.363,5.466-0.516,6.831,1.893
				c0.819,1.445,0.842,3.127,0.204,4.533L67.46,71.117z"/>
		</g>
		<path fill="#DBA94B" d="M70.593,76.436c-1.749-0.014-3.183,1.793-3.197,4.039c-0.02,2.246,1.383,4.076,3.135,4.09
			c1.749,0.014,3.181-1.795,3.197-4.039C73.746,78.279,72.341,76.449,70.593,76.436z M71.084,82.098
			c-1.096-0.006-1.975-1.166-1.965-2.586c0.012-1.422,0.91-2.566,2.006-2.559c1.098,0.01,1.977,1.168,1.968,2.588
			C73.08,80.963,72.183,82.107,71.084,82.098z"/>
		<g>
			<polygon fill="#DBA94B" points="94.026,70.266 51.719,50.829 69.754,96.109 71.521,94.428 55.496,54.188 93.625,71.705 			"/>
			<path fill="#DBA94B" d="M94.387,70.414l-2.325-1.068c-0.006,0.01-0.01,0.02-0.012,0.029c-1.272,2.695-4.989,3.898-6.807,6.221
				c-1.829,2.332-2.11,6.227-4.41,8.098c-2.287,1.861-6.152,1.346-8.823,2.664c-1.671,0.826-3.064,2.5-4.609,3.785l2.555,6.412
				C81.258,91.545,90.137,82.084,94.387,70.414z"/>
		</g>
		<path fill="#DBA94B" d="M65.678,62.332c0,0-5.765,1.807-4.842-1.393C61.759,57.736,65.678,62.332,65.678,62.332z"/>
	</g>
	<path fill="#DBA94B" d="M72.063,18.787c0,0,2.955,7.663-1.47,6.692C66.166,24.507,72.063,18.787,72.063,18.787z"/>
	<path fill="#DBA94B" d="M85.079,40.396c0,0-5.308,3.995-5.53,0.338C79.325,37.078,85.079,40.396,85.079,40.396z"/>
	<path fill="#DBA94B" d="M82.436,52.682c0,0,1.362,6.504-2.042,5.15C76.989,56.482,82.436,52.682,82.436,52.682z"/>
	<path fill="#DBA94B" d="M58.436,46.568c0,0,4.96-6.079,6.248-1.949C65.972,48.752,58.436,46.568,58.436,46.568z"/>
	<path fill="#DBA94B" d="M51.156,64.656c0,0-8.477-3.264-4.398-6.172C50.84,55.578,51.156,64.656,51.156,64.656z"/>
	<path fill="#DBA94B" d="M56.071,71.809c0,0,2.026,7.086-1.85,5.863C50.343,76.449,56.071,71.809,56.071,71.809z"/>
	<polygon fill="#DBA94B" points="86.764,62.234 46.898,44.45 63.736,86.197 64.87,85.721 48.996,46.07 86.481,62.975 	"/>
</g>
</svg>
