<?xml version="1.0" encoding="utf-8"?>
<!-- Generator: Adobe Illustrator 16.0.0, SVG Export Plug-In . SVG Version: 6.00 Build 0)  -->
<!DOCTYPE svg PUBLIC "-//W3C//DTD SVG 1.1//EN" "http://www.w3.org/Graphics/SVG/1.1/DTD/svg11.dtd">
<svg version="1.1" id="Layer_1" xmlns="http://www.w3.org/2000/svg" xmlns:xlink="http://www.w3.org/1999/xlink" x="0px" y="0px"
	 width="100px" height="100px" viewBox="0 0 100 100" enable-background="new 0 0 100 100" xml:space="preserve">
<g>
	<path fill="#DBA94B" d="M33.506,2.333c-0.077,0-0.15,0.003-0.228,0.005c2.339,0.132,4.126,0.846,4.126,1.708
		c0,0.956-2.199,1.73-4.911,1.73c-2.225,0-4.102-0.521-4.706-1.235c0.043,1.188,2.584,2.148,5.718,2.148
		c3.161,0,5.722-0.976,5.722-2.178S36.667,2.333,33.506,2.333z"/>
	<path fill="#DBA94B" d="M36.66,81.761c0.047,0.572,0.08,1.156,0.097,1.756c5.117,0.446,9.305,2.234,11.025,4.608
		C47.263,84.997,42.681,82.442,36.66,81.761z"/>
	<path fill="#DBA94B" d="M42.333,46.921c0-1.642-2.959-3.01-6.909-3.34c-3.523,0.161-5.669,1.495-5.081,2.899
		c0.789,1.883,4.188,0.426,4.188,0.426c-2.002,0.364-4.615-0.668-2.793-1.64c1.822-0.972,4.676-0.303,5.466,0.729
		c0.789,1.032-0.123,3.521-4.069,3.643c-3.947,0.122-6.436-1.456-6.861-3.035c-0.278-1.033,2.039-2.142,3.679-2.787
		c-3.012,0.538-5.105,1.726-5.105,3.105c0,1.886,3.914,3.415,8.742,3.415C38.42,50.336,42.333,48.807,42.333,46.921z"/>
	<path fill="#DBA94B" d="M31.128,51.658c-4.359-0.478-7.597-2.248-7.597-4.36c0-2.462,4.392-4.459,9.834-4.488
		c1.529-10.039-1.111-29.71-1.916-35.246c-1.352-0.188-2.47-0.561-3.126-1.043c0.362,3.425,1.359,13.083,1.689,19.003
		c0.405,7.292-1.418,14.583-6.279,20.254c-4.86,5.672-6.076,12.355-5.671,20.862c0.405,8.506,0.203,21.064,1.62,23.293
		c1.383,2.17,3.342,5.877,13.368,6.065v0.01c0.138,0,0.27-0.004,0.405-0.005c0.009,0,0.02,0,0.028,0
		c3.408-12.688,0.996-19.971-1.953-26.63C29.094,63.871,29.466,58.55,31.128,51.658z"/>
	<path fill="#DBA94B" d="M43.178,45.779c-4.861-5.671-6.683-12.962-6.278-20.254c0.332-5.973,1.343-15.751,1.698-19.089
		c-0.384,0.316-0.96,0.59-1.672,0.803c0.494,3.532-1.305,17.064-0.938,21.932c0.321,4.249-0.054,9.26,3.141,14.428
		c2.608,0.81,4.319,2.163,4.319,3.7c0,0.391-0.111,0.77-0.32,1.131c6.01,7.421,4.404,29.455,4.404,35.327
		c0,6.076-3.14,9.013-7.291,9.823c-4.153,0.809-8.304,0.302-8.304,0.708L29.898,95.8c0.953,0.108,1.997,0.178,3.152,0.199v0.01
		c0.138,0,0.27-0.004,0.405-0.005c0.136,0.001,0.268,0.005,0.405,0.005v-0.01c10.025-0.188,11.987-3.896,13.368-6.065
		c1.419-2.229,1.216-14.787,1.621-23.293C49.253,58.134,48.039,51.451,43.178,45.779z"/>
	<g>
		<path fill="#DBA94B" d="M76.511,48.48c0.693,2.292,1.12,4.488,1.12,6.268c0,7.265-2.266,13.277-10.541,13.154
			c-5.821-0.086-10.541-5.89-10.541-13.154c0-1.651,0.381-3.623,1.004-5.686c-1.47,3.131-2.475,6.322-2.475,8.789
			c0,7.108,5.378,12.871,12.012,12.871c6.635,0,12.014-5.763,12.014-12.871C79.104,55.279,78.042,51.824,76.511,48.48z"/>
		<path fill="#DBA94B" d="M67.091,54.05c-1.584,0-3.078,0.136-4.4,0.371c3.027,0.052,5.442,0.992,5.442,2.142
			c0,1.186-2.552,2.146-5.7,2.146c-2.22,0-4.142-0.477-5.083-1.175c0.078,1.873,4.406,3.382,9.741,3.382
			c5.383,0,9.744-1.537,9.744-3.432C76.835,55.587,72.474,54.05,67.091,54.05z"/>
		<path fill="#DBA94B" d="M67.151,71.457c-0.916,0-1.807-0.113-2.665-0.322c-0.002,0.046-0.007,0.091-0.007,0.138
			c0,1.422,1.153,2.575,2.574,2.575c1.422,0,2.574-1.153,2.574-2.575c0-0.029-0.004-0.06-0.005-0.09
			C68.826,71.362,67.999,71.457,67.151,71.457z"/>
		<path fill="#DBA94B" d="M69.878,84.45c-0.788-2.438-1.575-6.895-2.116-10.214c-0.121,0.035-0.246,0.061-0.377,0.077
			c0.397,2.502,1.038,6.409,1.718,9.059c0.15,1.933-0.563,2.635-1.165,2.755v0.003c-0.016,0.003-0.029,0.004-0.045,0.005
			c-0.015,0.001-0.029,0.005-0.044,0.006v-0.004c-0.808,0.017-1.679-1.488-1.466-4.827c0.093-1.428,0.464-4.26,0.865-6.982
			c-0.064,0.006-0.128,0.011-0.194,0.011c-0.246,0-0.482-0.036-0.708-0.102c-0.541,3.319-1.328,7.775-2.117,10.214
			c-1.354,4.194,1.007,5.37,2.73,5.449v0.006c0.031,0,0.063-0.002,0.095-0.004c0.032,0.002,0.064,0.004,0.097,0.004v-0.006
			C68.872,89.82,71.233,88.645,69.878,84.45z"/>
		<path fill="#DBA94B" d="M72.474,87.708c1.259,0.701,2.033,1.646,2.033,2.687c0,2.166-3.347,3.922-7.477,3.922
			c-4.131,0-7.478-1.756-7.478-3.922c0-1.4,1.4-2.63,3.508-3.323c-0.008-0.065-0.015-0.133-0.019-0.203
			c-2.926,0.692-4.96,2.216-4.96,3.985c0,2.421,3.798,4.384,8.487,4.384c4.688,0,8.489-1.963,8.489-4.384
			C75.059,89.619,74.066,88.503,72.474,87.708z"/>
		<path fill="#DBA94B" d="M69.916,88.713c0.521,0.572,1.012,1.356,0.699,2.08c-0.583,1.349-3.064,1.809-3.862,0.582
			c-0.18-0.274-0.251-0.58-0.252-0.892c-0.961-0.123-2.024-0.597-2.518-1.723c-0.846,0.477-2.207,1.072-1.796,1.939
			c0.538,1.138,1.901,1.981,4.705,2.02c0,0.001,0,0.004,0,0.004c0.034,0,0.066-0.002,0.1-0.002c0.032,0,0.064,0.002,0.099,0.002
			c0,0,0-0.003,0-0.004c2.805-0.038,4.167-0.882,4.704-2.02C72.222,89.803,70.752,89.196,69.916,88.713z"/>
		<path fill="#DBA94B" d="M67.01,45.171c-5.107,0-9.25,1.511-9.25,3.375s4.143,3.376,9.25,3.376s9.249-1.512,9.249-3.376
			S72.117,45.171,67.01,45.171z M67.651,50.91c-4.567,0-8.271-1.24-8.271-2.769s3.704-2.768,8.271-2.768
			c4.568,0,8.271,1.24,8.271,2.768S72.22,50.91,67.651,50.91z"/>
	</g>
</g>
</svg>
