<?xml version="1.0" encoding="utf-8"?>
<!-- Generator: Adobe Illustrator 16.0.4, SVG Export Plug-In . SVG Version: 6.00 Build 0)  -->
<!DOCTYPE svg PUBLIC "-//W3C//DTD SVG 1.1//EN" "http://www.w3.org/Graphics/SVG/1.1/DTD/svg11.dtd">
<svg version="1.1" id="Layer_1" xmlns="http://www.w3.org/2000/svg" xmlns:xlink="http://www.w3.org/1999/xlink" x="0px" y="0px"
	 width="100px" height="100px" viewBox="0 0 100 100" enable-background="new 0 0 100 100" xml:space="preserve">
<g>
	<g>
		<path fill="#FFFFFF" d="M73.605,26.062c-4.319-4.32-10.062-6.698-16.172-6.698s-11.852,2.378-16.172,6.698
			c-4.32,4.319-6.699,10.063-6.699,16.172c0,4.138,1.095,8.107,3.142,11.58L20.25,71.27c-0.354,0.355-0.554,0.837-0.554,1.338
			c0,0.502,0.2,0.983,0.554,1.339l5.5,5.499c0.354,0.354,0.835,0.556,1.337,0.556c0.503,0,0.983-0.201,1.338-0.556l17.462-17.463
			c3.466,2.033,7.422,3.121,11.546,3.121c6.109,0,11.853-2.379,16.172-6.698c4.321-4.319,6.699-10.062,6.699-16.171
			S77.927,30.381,73.605,26.062z M27.087,75.432l-2.824-2.824l15.664-15.662c0.423,0.502,0.866,0.989,1.335,1.46
			c0.478,0.479,0.979,0.93,1.491,1.36L27.087,75.432z M70.931,55.729c-3.604,3.604-8.398,5.591-13.497,5.591
			c-5.098,0-9.891-1.987-13.496-5.591c-3.604-3.604-5.589-8.397-5.589-13.496s1.984-9.892,5.589-13.497
			c3.605-3.604,8.398-5.589,13.496-5.589c5.099,0,9.893,1.985,13.497,5.589c3.604,3.605,5.589,8.398,5.589,13.497
			S74.534,52.125,70.931,55.729z"/>
	</g>
	<g>
		<path fill="#FFFFFF" d="M72.417,44.495c-0.677-0.16-1.358,0.26-1.518,0.938c-0.59,2.491-1.863,4.768-3.681,6.585
			c-2.614,2.614-6.089,4.055-9.785,4.055c-3.695,0-7.17-1.44-9.785-4.055c-0.461-0.459-0.892-0.957-1.284-1.477
			c-0.418-0.558-1.208-0.669-1.767-0.25c-0.556,0.42-0.669,1.211-0.249,1.767c0.463,0.614,0.972,1.201,1.516,1.744
			c3.091,3.092,7.198,4.792,11.569,4.792s8.479-1.7,11.568-4.791c2.149-2.149,3.655-4.843,4.352-7.789
			C73.515,45.335,73.095,44.657,72.417,44.495z"/>
	</g>
	<g>
		<path fill="#FFFFFF" d="M44.246,46.435c-1.573-4.955-0.269-10.313,3.403-13.986c2.614-2.613,6.089-4.052,9.785-4.052
			c3.696,0,7.171,1.439,9.785,4.053c1.765,1.763,3.019,3.967,3.628,6.372c0.172,0.674,0.856,1.083,1.532,0.913
			c0.676-0.17,1.085-0.857,0.913-1.533c-0.72-2.845-2.203-5.452-4.29-7.537c-3.089-3.09-7.197-4.792-11.568-4.792
			s-8.478,1.702-11.569,4.792c-4.341,4.342-5.884,10.678-4.023,16.533c0.171,0.538,0.667,0.88,1.202,0.88
			c0.127,0,0.255-0.019,0.383-0.06C44.089,47.808,44.457,47.098,44.246,46.435z"/>
	</g>
	<g>
		<path fill="#FFFFFF" d="M59.942,31.395c-0.68-0.158-1.355,0.266-1.513,0.945c-0.156,0.679,0.268,1.356,0.946,1.513
			c1.565,0.361,2.997,1.155,4.141,2.298c0.246,0.246,0.569,0.369,0.893,0.369c0.32,0,0.645-0.123,0.891-0.369
			c0.493-0.493,0.493-1.292,0-1.785C63.821,32.89,61.97,31.861,59.942,31.395z"/>
	</g>
	<g>
		<path fill="#FFFFFF" d="M65.992,41.378c0.064,0.651,0.612,1.138,1.255,1.138c0.041,0,0.082-0.001,0.123-0.006
			c0.695-0.068,1.201-0.686,1.134-1.38c-0.085-0.847-0.266-1.687-0.541-2.495c-0.225-0.659-0.94-1.011-1.601-0.787
			c-0.661,0.225-1.013,0.941-0.788,1.6C65.787,40.074,65.928,40.722,65.992,41.378z"/>
	</g>
</g>
<g>
	<path fill="#FFFFFF" d="M50,99.364c-27.395,0-49.682-22.287-49.682-49.682S22.605,0,50,0c27.396,0,49.682,22.287,49.682,49.682
		S77.396,99.364,50,99.364z M50,4.737c-24.782,0-44.945,20.163-44.945,44.945S25.218,94.627,50,94.627
		c24.783,0,44.945-20.162,44.945-44.945S74.783,4.737,50,4.737z"/>
</g>
</svg>
